<?xml version="1.0" standalone="no"?>
<!DOCTYPE svg PUBLIC "-//W3C//DTD SVG 20010904//EN"
 "http://www.w3.org/TR/2001/REC-SVG-20010904/DTD/svg10.dtd">
<svg version="1.0" xmlns="http://www.w3.org/2000/svg"
 width="192.000000pt" height="192.000000pt" viewBox="0 0 192.000000 192.000000"
 preserveAspectRatio="xMidYMid meet">
<metadata>
Created by potrace 1.14, written by Peter Selinger 2001-2017
</metadata>
<g transform="translate(0.000000,192.000000) scale(0.100000,-0.100000)"
fill="#000000" stroke="none">
<path d="M0 960 l0 -960 960 0 960 0 0 960 0 960 -960 0 -960 0 0 -960z m660
332 c0 -4 -19 -30 -41 -57 -23 -28 -54 -75 -68 -105 -22 -48 -26 -68 -25 -150
0 -116 24 -185 90 -262 43 -51 49 -68 27 -75 -21 -7 -94 78 -126 145 -30 64
-32 73 -32 187 0 109 2 125 27 177 31 66 102 148 129 148 11 0 19 -3 19 -8z
m691 -34 c115 -124 140 -309 64 -477 -27 -57 -99 -141 -122 -141 -24 0 -13 32
23 73 20 22 48 65 63 96 23 50 26 68 26 166 0 98 -3 116 -26 166 -15 31 -43
74 -63 96 -65 72 -32 91 35 21z m-366 -39 c57 -68 78 -137 65 -207 -9 -51 11
-69 37 -33 20 30 39 14 58 -52 13 -46 14 -57 0 -102 -8 -27 -26 -63 -41 -80
-18 -21 -23 -24 -18 -10 4 11 8 33 8 50 1 28 -2 30 -42 36 -24 3 -48 12 -53
20 -5 8 -9 50 -9 94 0 85 -13 126 -26 90 -4 -11 -27 -51 -51 -90 -50 -80 -76
-156 -66 -194 6 -24 5 -25 -12 -11 -25 21 -55 88 -55 126 0 46 17 87 75 180
31 48 60 110 70 149 10 36 21 65 26 65 4 0 19 -14 34 -31z"/>
</g>
</svg>
